<?xml version="1.0" encoding="iso-8859-1"?>
<!-- Generator: Adobe Illustrator 17.1.0, SVG Export Plug-In . SVG Version: 6.00 Build 0)  -->
<!DOCTYPE svg PUBLIC "-//W3C//DTD SVG 1.1//EN" "http://www.w3.org/Graphics/SVG/1.1/DTD/svg11.dtd">
<svg xmlns="http://www.w3.org/2000/svg" xmlns:xlink="http://www.w3.org/1999/xlink" version="1.1" id="Capa_1" x="0px" y="0px" viewBox="0 0 475.871 475.871" style="enable-background:new 0 0 475.871 475.871;" xml:space="preserve" width="512px" height="512px">
<path d="M429.784,161.124c0-4.142-3.357-7.5-7.5-7.5c-29.748,0-53.949-24.202-53.949-53.949V7.5c0-4.142-3.357-7.5-7.5-7.5h-61.45  c-4.143,0-7.5,3.358-7.5,7.5v30.725c0,29.748-24.201,53.949-53.949,53.949s-53.949-24.202-53.949-53.949V7.5  c0-4.142-3.357-7.5-7.5-7.5h-61.449c-4.143,0-7.5,3.358-7.5,7.5v92.174c0,29.748-24.202,53.949-53.95,53.949  c-4.143,0-7.5,3.358-7.5,7.5v54.767c0,13.078,5.124,25.562,14.031,34.845c-8.907,9.284-14.031,21.768-14.031,34.845v45.511  c0,13.077,5.124,25.561,14.03,34.844c-8.906,9.284-14.03,21.767-14.03,34.844v67.592c0,4.142,3.357,7.5,7.5,7.5h368.697  c4.143,0,7.5-3.358,7.5-7.5v-67.592c0-13.078-5.124-25.561-14.03-34.844c8.906-9.284,14.03-21.767,14.03-34.844v-45.511  c0-13.078-5.124-25.561-14.03-34.845c8.906-9.284,14.03-21.767,14.03-34.845V161.124z M277.436,270.269c0,1.378-1.121,2.5-2.5,2.5  h-74c-1.379,0-2.5-1.122-2.5-2.5v-39.067c0-1.378,1.121-2.5,2.5-2.5h74c1.379,0,2.5,1.122,2.5,2.5V270.269z M61.088,168.218  c34.504-3.749,61.449-33.059,61.449-68.544V15h46.449v23.225c0,35.484,26.947,64.783,61.449,68.534v106.943h-29.5  c-9.649,0-17.5,7.851-17.5,17.5v12.033H74.073c-8.169-6.669-12.986-16.727-12.986-27.345L61.088,168.218z M61.087,285.581  c0-10.618,4.817-20.675,12.986-27.345h109.363v12.034c0,9.649,7.851,17.5,17.5,17.5h29.5v41.133h-29.5  c-9.649,0-17.5,7.851-17.5,17.5v12.033H74.073c-8.169-6.669-12.986-16.727-12.986-27.344V285.581z M277.436,385.469  c0,1.378-1.121,2.5-2.5,2.5h-74c-1.379,0-2.5-1.122-2.5-2.5v-39.066c0-1.378,1.121-2.5,2.5-2.5h74c1.379,0,2.5,1.122,2.5,2.5  V385.469z M61.087,400.779c0-10.617,4.817-20.674,12.986-27.344h109.363v12.033c0,9.649,7.851,17.5,17.5,17.5h29.5v57.902H61.087  V400.779z M414.784,215.891c0,11.384-5.534,22.128-14.803,28.739c-1.974,1.407-3.146,3.682-3.146,6.106  c0,2.424,1.172,4.698,3.145,6.106c9.27,6.611,14.804,17.355,14.804,28.739v45.511c0,11.384-5.534,22.127-14.804,28.739  c-1.974,1.407-3.145,3.682-3.145,6.106c0,2.424,1.172,4.698,3.146,6.106c9.269,6.609,14.803,17.353,14.803,28.737v60.092H245.436  v-57.902h29.5c9.649,0,17.5-7.851,17.5-17.5v-12.033h68.399c4.143,0,7.5-3.358,7.5-7.5s-3.357-7.5-7.5-7.5h-68.399v-12.033  c0-9.649-7.851-17.5-17.5-17.5h-29.5v-41.133h29.5c9.649,0,17.5-7.851,17.5-17.5v-12.034h68.399c4.143,0,7.5-3.358,7.5-7.5  s-3.357-7.5-7.5-7.5h-68.399v-12.033c0-9.649-7.851-17.5-17.5-17.5h-29.5V106.759c34.503-3.751,61.449-33.05,61.449-68.534V15h46.45  v84.674c0,35.485,26.945,64.795,61.449,68.544V215.891z" fill="#FFFFFF"/>
<g>
</g>
<g>
</g>
<g>
</g>
<g>
</g>
<g>
</g>
<g>
</g>
<g>
</g>
<g>
</g>
<g>
</g>
<g>
</g>
<g>
</g>
<g>
</g>
<g>
</g>
<g>
</g>
<g>
</g>
</svg>
