<?xml version="1.0" encoding="iso-8859-1"?>
<!-- Generator: Adobe Illustrator 17.1.0, SVG Export Plug-In . SVG Version: 6.00 Build 0)  -->
<!DOCTYPE svg PUBLIC "-//W3C//DTD SVG 1.1//EN" "http://www.w3.org/Graphics/SVG/1.1/DTD/svg11.dtd">
<svg xmlns="http://www.w3.org/2000/svg" xmlns:xlink="http://www.w3.org/1999/xlink" version="1.1" id="Capa_1" x="0px" y="0px" viewBox="0 0 475.8 475.8" style="enable-background:new 0 0 475.8 475.8;" xml:space="preserve" width="512px" height="512px">
<path d="M406.121,69.679C361.188,24.746,301.445,0,237.9,0S114.612,24.746,69.679,69.679S0,174.354,0,237.9  c0,1.623,0.526,3.202,1.5,4.5l106.036,141.382c9.372,12.495,22.538,21.544,37.23,26.019l-11.53,34.589  c-2.455,7.365-1.259,15.201,3.28,21.5c4.54,6.298,11.595,9.91,19.359,9.91h164.048c7.764,0,14.82-3.612,19.36-9.911  c4.539-6.298,5.734-14.134,3.279-21.499l-11.53-34.589c14.692-4.475,27.859-13.524,37.23-26.019L474.3,242.4  c0.974-1.298,1.5-2.877,1.5-4.5C475.8,174.354,451.054,114.612,406.121,69.679z M356.264,374.782  c-10.887,14.516-28.219,23.182-46.364,23.182c-4.142,0-7.5,3.358-7.5,7.5s3.358,7.5,7.5,7.5c2.105,0,4.201-0.094,6.284-0.277  l12.149,36.447c0.912,2.735,0.468,5.646-1.218,7.985s-4.307,3.681-7.191,3.681H155.876c-2.883,0-5.504-1.342-7.19-3.681  s-2.13-5.25-1.218-7.985l12.149-36.447c2.082,0.183,4.179,0.277,6.284,0.277h97.581c4.142,0,7.5-3.358,7.5-7.5s-3.358-7.5-7.5-7.5  H165.9c-18.145,0-35.477-8.666-46.364-23.182L15.014,235.418c0.338-30.978,7.04-60.453,18.837-87.195l76.015,110.842  c1.454,2.12,3.802,3.259,6.192,3.259c1.461,0,2.938-0.426,4.235-1.315c3.416-2.342,4.286-7.011,1.943-10.427L41.418,132.736  c16.332-30.393,39.504-56.583,67.454-76.492l59.266,142.642c1.198,2.885,3.988,4.625,6.929,4.625c0.959,0,1.934-0.185,2.875-0.576  c3.825-1.589,5.638-5.979,4.048-9.803L121.612,47.815c31.879-19.574,69.03-31.353,108.788-32.675V171.3c0,4.142,3.358,7.5,7.5,7.5  s7.5-3.358,7.5-7.5V15.14c39.758,1.322,76.909,13.101,108.788,32.675l-60.378,145.316c-1.589,3.825,0.223,8.214,4.048,9.804  c0.941,0.391,1.916,0.576,2.875,0.576c2.94,0,5.73-1.74,6.929-4.625l59.267-142.642c27.949,19.909,51.121,46.099,67.453,76.492  l-80.818,117.845c-2.343,3.416-1.473,8.084,1.943,10.427c1.296,0.889,2.773,1.315,4.235,1.315c2.39,0,4.739-1.139,6.192-3.259  l76.014-110.842c11.797,26.741,18.499,56.216,18.837,87.194L356.264,374.782z" fill="#FFFFFF"/>
<g>
</g>
<g>
</g>
<g>
</g>
<g>
</g>
<g>
</g>
<g>
</g>
<g>
</g>
<g>
</g>
<g>
</g>
<g>
</g>
<g>
</g>
<g>
</g>
<g>
</g>
<g>
</g>
<g>
</g>
</svg>
