<?xml version="1.0" encoding="iso-8859-1"?>
<!-- Generator: Adobe Illustrator 17.1.0, SVG Export Plug-In . SVG Version: 6.00 Build 0)  -->
<!DOCTYPE svg PUBLIC "-//W3C//DTD SVG 1.1//EN" "http://www.w3.org/Graphics/SVG/1.1/DTD/svg11.dtd">
<svg xmlns="http://www.w3.org/2000/svg" xmlns:xlink="http://www.w3.org/1999/xlink" version="1.1" id="Capa_1" x="0px" y="0px" viewBox="0 0 475.8 475.8" style="enable-background:new 0 0 475.8 475.8;" xml:space="preserve" width="512px" height="512px">
<path d="M82.148,178.536v118.729c0,2.464,2.005,4.469,4.469,4.469h75.535l52.749-39.562c10.658-7.995,24.644-9.691,36.72-5.101  l66.242-66.243c2.93-2.929,7.678-2.929,10.607,0c2.929,2.929,2.929,7.678,0,10.606l-63.666,63.667l22.685,17.014l81.57-81.571  c2.93-2.929,7.678-2.929,10.607,0c2.929,2.929,2.929,7.678,0,10.606l-80.055,80.056l14.036,10.527h75.535  c2.464,0,4.469-2.005,4.469-4.469v-81.51c0-4.142,3.357-7.5,7.5-7.5s7.5,3.358,7.5,7.5v81.51c0,10.735-8.733,19.469-19.469,19.469  h-78.035c-1.623,0-3.202-0.526-4.5-1.5l-54.749-41.062c-8.24-6.18-19.753-6.182-27.997,0l-54.749,41.062  c-1.298,0.974-2.877,1.5-4.5,1.5H86.617c-10.735,0-19.469-8.734-19.469-19.469V178.536c0-10.735,8.733-19.468,19.469-19.468h302.565  c10.735,0,19.469,8.733,19.469,19.468c0,4.142-3.357,7.5-7.5,7.5s-7.5-3.358-7.5-7.5c0-2.464-2.005-4.468-4.469-4.468H86.617  C84.153,174.067,82.148,176.072,82.148,178.536z M475.8,190.154v75.925c0,4.142-3.357,7.5-7.5,7.5h-23.743v23.686  c0,30.533-24.841,55.374-55.375,55.374h-78.034c-9.331,0-18.58-3.083-26.044-8.681l-33.205-24.904  c-4.07-3.053-8.911-4.667-13.999-4.667c-5.087,0-9.928,1.614-13.998,4.667l-33.206,24.904c-7.463,5.598-16.712,8.681-26.043,8.681  H86.617c-30.533,0-55.374-24.841-55.374-55.374v-23.686H7.5c-4.143,0-7.5-3.358-7.5-7.5v-75.925c0-4.142,3.357-7.5,7.5-7.5h23.743  v-4.118c0-30.533,24.841-55.374,55.374-55.374h302.564c30.534,0,55.375,24.841,55.375,55.374v4.118H468.3  C472.442,182.654,475.8,186.012,475.8,190.154z M31.243,258.579v-60.925H15v60.925H31.243z M429.557,178.536  c0-22.262-18.112-40.374-40.375-40.374H86.617c-22.263,0-40.374,18.112-40.374,40.374v118.729c0,22.262,18.111,40.374,40.374,40.374  h78.035c6.106,0,12.158-2.018,17.043-5.681l33.206-24.904c6.687-5.015,14.64-7.667,22.998-7.667c8.359,0,16.313,2.651,22.999,7.667  l33.205,24.904c4.885,3.664,10.938,5.681,17.044,5.681h78.034c22.263,0,40.375-18.112,40.375-40.374V178.536z M460.8,197.654  h-16.243v60.925H460.8V197.654z" fill="#FFFFFF"/>
<g>
</g>
<g>
</g>
<g>
</g>
<g>
</g>
<g>
</g>
<g>
</g>
<g>
</g>
<g>
</g>
<g>
</g>
<g>
</g>
<g>
</g>
<g>
</g>
<g>
</g>
<g>
</g>
<g>
</g>
</svg>
