<?xml version="1.0" encoding="iso-8859-1"?>
<!-- Generator: Adobe Illustrator 17.1.0, SVG Export Plug-In . SVG Version: 6.00 Build 0)  -->
<!DOCTYPE svg PUBLIC "-//W3C//DTD SVG 1.1//EN" "http://www.w3.org/Graphics/SVG/1.1/DTD/svg11.dtd">
<svg xmlns="http://www.w3.org/2000/svg" xmlns:xlink="http://www.w3.org/1999/xlink" version="1.1" id="Capa_1" x="0px" y="0px" viewBox="0 0 475.291 475.291" style="enable-background:new 0 0 475.291 475.291;" xml:space="preserve" width="512px" height="512px">
<path d="M426.953,262.361l-67.404-41.688c-2.308-1.428-5.203-1.497-7.577-0.184c-2.373,1.313-3.852,3.805-3.868,6.517  c-0.152,25.555-0.515,54.443-0.883,57.633c-5.379,42.074-35.503,74.139-81.272,87.198V165.109h39.102c4.143,0,7.5-3.358,7.5-7.5  v-33.044c0-4.142-3.357-7.5-7.5-7.5h-39.148V96.03c14.86-9.564,23.917-25.977,23.917-43.856C289.818,23.405,266.414,0,237.646,0  s-52.173,23.405-52.173,52.173c0,17.856,9.038,34.257,23.869,43.827v21.065h-39.101c-4.143,0-7.5,3.358-7.5,7.5v33.044  c0,4.142,3.357,7.5,7.5,7.5h39.101v206.075c-42.386-12.302-71.923-44.652-77.279-86.545c-0.44-3.44-3.171-36.683-4.899-58.188  c-0.209-2.604-1.759-4.912-4.09-6.092s-5.108-1.061-7.331,0.314l-67.404,41.688c-2.313,1.43-3.67,4-3.547,6.717  c0.122,2.716,1.706,5.154,4.138,6.37l29.557,14.778v12.216c0,36.324,12.063,66.796,35.854,90.57  c20.751,20.735,49.543,35.561,85.605,44.085l32.124,35.71c1.423,1.581,3.45,2.484,5.577,2.484s4.153-0.903,5.576-2.485  l32.108-35.706c36.068-8.523,64.866-23.35,85.619-44.088c23.792-23.773,35.855-54.246,35.855-90.57v-12.216l29.557-14.778  c2.432-1.216,4.016-3.653,4.138-6.37C430.623,266.361,429.266,263.791,426.953,262.361z M385.951,278.882  c-2.54,1.27-4.146,3.867-4.146,6.708v16.852c0,82.776-70.253,111.072-112.13,120.571c-1.512,0.343-2.881,1.146-3.918,2.299  l-28.113,31.264l-27.877-30.989c-1.026-1.258-2.463-2.19-4.153-2.574c-41.877-9.5-112.129-37.794-112.129-120.571V285.59  c0-2.841-1.605-5.438-4.146-6.708l-21.675-10.838l45.535-28.163c1.329,16.363,3.527,43.09,3.983,46.66  c3.521,27.538,16.213,51.961,36.702,70.629c19.714,17.961,45.214,29.404,73.741,33.089c4.108,0.535,7.868-2.369,8.399-6.477  c0.53-4.108-2.369-7.868-6.478-8.399c-1.753-0.227-3.487-0.489-5.207-0.778V165.094h7.97c4.143,0,7.5-3.358,7.5-7.5  s-3.357-7.5-7.5-7.5H215.78c-0.098,0-0.193,0.011-0.29,0.015h-37.749v-18.044h39.101c4.143,0,7.5-3.358,7.5-7.5v-22.733  c1.12,0.297,2.25,0.569,3.401,0.792c0.481,0.094,0.962,0.139,1.435,0.139c3.521,0,6.66-2.49,7.355-6.074  c0.788-4.066-1.87-8.002-5.937-8.79c-17.23-3.34-29.736-18.527-29.736-36.112C200.86,31.502,217.362,15,237.646,15  c20.497,0,37.173,16.676,37.173,37.173c0,13.848-7.628,26.461-19.907,32.918c-2.466,1.296-4.01,3.853-4.01,6.638v32.835  c0,4.142,3.357,7.5,7.5,7.5h39.148v18.044h-39.102c-4.143,0-7.5,3.358-7.5,7.5v223.857c0,0.017,0.002,0.033,0.002,0.05  c0.001,0.127,0.012,0.255,0.019,0.382c0.008,0.132,0.012,0.265,0.026,0.395c0.008,0.073,0.023,0.146,0.033,0.219  c0.026,0.185,0.053,0.369,0.093,0.549c0.002,0.008,0.002,0.015,0.004,0.023c0.009,0.041,0.023,0.078,0.032,0.119  c0.047,0.198,0.099,0.394,0.161,0.586c0.021,0.065,0.047,0.128,0.07,0.193c0.059,0.166,0.12,0.331,0.19,0.492  c0.038,0.087,0.082,0.17,0.123,0.255c0.064,0.132,0.127,0.264,0.198,0.391c0.056,0.1,0.118,0.196,0.178,0.293  c0.066,0.107,0.131,0.214,0.203,0.317c0.07,0.101,0.146,0.198,0.22,0.295c0.072,0.094,0.143,0.189,0.219,0.279  c0.078,0.092,0.161,0.18,0.243,0.268c0.083,0.089,0.165,0.179,0.253,0.264c0.08,0.078,0.164,0.151,0.247,0.225  c0.099,0.088,0.197,0.176,0.3,0.259c0.078,0.062,0.158,0.119,0.238,0.178c0.116,0.086,0.232,0.171,0.353,0.249  c0.076,0.049,0.154,0.094,0.231,0.14c0.13,0.078,0.259,0.155,0.394,0.226c0.079,0.042,0.161,0.078,0.242,0.117  c0.135,0.064,0.27,0.129,0.409,0.185c0.094,0.038,0.191,0.07,0.287,0.105c0.129,0.046,0.256,0.093,0.388,0.132  c0.121,0.036,0.245,0.065,0.368,0.095c0.109,0.026,0.217,0.056,0.328,0.077c0.157,0.031,0.317,0.052,0.478,0.073  c0.082,0.01,0.162,0.025,0.244,0.033c0.187,0.018,0.376,0.025,0.566,0.029c0.053,0.001,0.104,0.008,0.157,0.008  c0.01,0,0.02-0.001,0.03-0.002c0.169-0.001,0.34-0.013,0.51-0.026c0.089-0.006,0.179-0.008,0.268-0.018  c0.113-0.012,0.226-0.034,0.339-0.052c0.145-0.022,0.29-0.042,0.431-0.073c0.013-0.003,0.026-0.004,0.04-0.007  c26.86-5.933,50.407-18.016,68.095-34.943c18.884-18.072,30.619-41.346,33.938-67.304c0.476-3.723,0.766-29.26,0.907-46.094  l44.619,27.596L385.951,278.882z M253.008,51.785c0,8.485-6.878,15.363-15.363,15.363c-8.485,0-15.363-6.878-15.363-15.363  s6.878-15.363,15.363-15.363C246.13,36.423,253.008,43.301,253.008,51.785z" fill="#FFFFFF"/>
<g>
</g>
<g>
</g>
<g>
</g>
<g>
</g>
<g>
</g>
<g>
</g>
<g>
</g>
<g>
</g>
<g>
</g>
<g>
</g>
<g>
</g>
<g>
</g>
<g>
</g>
<g>
</g>
<g>
</g>
</svg>
