<?xml version="1.0" encoding="iso-8859-1"?>
<!-- Generator: Adobe Illustrator 17.1.0, SVG Export Plug-In . SVG Version: 6.00 Build 0)  -->
<!DOCTYPE svg PUBLIC "-//W3C//DTD SVG 1.1//EN" "http://www.w3.org/Graphics/SVG/1.1/DTD/svg11.dtd">
<svg version="1.1" id="Capa_1" xmlns="http://www.w3.org/2000/svg" xmlns:xlink="http://www.w3.org/1999/xlink" x="0px" y="0px"
	 viewBox="0 0 475.619 475.619" style="enable-background:new 0 0 475.619 475.619;" xml:space="preserve">
<path d="M468.119,5.05h-35.706c-4.143,0-7.5,3.358-7.5,7.5v154.98h-19.728c-7.63-26.094-27.433-49.952-57.642-68.828
	c-38.358-23.968-89.207-37.168-143.179-37.168c-53.971,0-104.819,13.2-143.178,37.168C21.729,123.356,0,156.505,0,192.042
	s21.729,68.686,61.187,93.34c38.358,23.968,89.207,37.167,143.178,37.167c53.972,0,104.82-13.2,143.179-37.167
	c33.486-20.923,54.196-47.966,59.699-77.394h17.671v150.574c0,17.322-13.51,32.944-30.115,34.825
	c-0.036,0.004-0.072,0.008-0.108,0.013l-184.013,23.556v-6.89c24.577-3.638,43.498-24.869,43.498-50.441c0-4.142-3.357-7.5-7.5-7.5
	s-7.5,3.358-7.5,7.5c0,19.849-16.148,35.998-35.998,35.998c-19.849,0-35.997-16.148-35.997-35.998c0-4.142-3.357-7.5-7.5-7.5
	s-7.5,3.358-7.5,7.5c0,25.572,18.921,46.803,43.497,50.441v8.81l-8.553,1.095c-13.703,1.585-23.759,13.359-22.902,26.833
	c0.848,13.326,11.957,23.765,25.291,23.765c0.952,0,1.916-0.054,2.866-0.162c0.036-0.004,0.072-0.009,0.108-0.013l52.118-6.67
	c0.104-0.007,0.207-0.006,0.312-0.017c0.227-0.025,0.448-0.064,0.667-0.108l154.972-19.833
	c43.495-4.954,75.063-40.779,75.063-85.204V12.55C475.619,8.408,472.262,5.05,468.119,5.05z M339.595,272.661
	c-36.007,22.499-84.032,34.889-135.23,34.889c-51.197,0-99.223-12.39-135.229-34.889C34.226,250.849,15,222.218,15,192.042
	s19.226-58.807,54.135-80.619c36.007-22.498,84.032-34.889,135.229-34.889c51.198,0,99.224,12.391,135.23,34.889
	c34.909,21.813,54.135,50.444,54.135,80.619S374.504,250.849,339.595,272.661z M408.711,192.989c0.003-0.316,0.018-0.63,0.018-0.946
	c0-3.192-0.182-6.363-0.53-9.512h16.713v10.458H408.711z M460.619,358.563c0,36.681-25.992,66.249-61.803,70.305
	c-0.036,0.004-0.072,0.008-0.108,0.013l-148.004,18.941l-1.153-10.417c-0.455-4.117-4.157-7.083-8.279-6.63
	c-4.116,0.456-7.085,4.163-6.629,8.279l1.181,10.671l-45.179,5.782c-0.377,0.041-0.758,0.062-1.133,0.062
	c-5.44,0-9.975-4.268-10.321-9.717c-0.344-5.412,4-10.339,9.684-10.983c0.036-0.004,0.072-0.008,0.108-0.013l14.785-1.893
	c0.246-0.019,0.489-0.051,0.728-0.093l192.046-24.584c23.92-2.741,43.371-25.034,43.371-49.723V61.181h8.806
	c4.143,0,7.5-3.358,7.5-7.5s-3.357-7.5-7.5-7.5h-8.806V20.05h20.706V358.563z M371.412,192.042c0,27.302-17.932,52.648-50.492,71.37
	c-31.254,17.97-72.647,27.867-116.556,27.867c-41.428,0-80.612-8.814-111.158-24.903c-0.07-0.035-0.138-0.073-0.207-0.111
	c-1.757-0.929-3.491-1.877-5.19-2.854c-32.561-18.722-50.492-44.068-50.492-71.37s17.932-52.648,50.492-71.37
	c31.254-17.97,72.646-27.867,116.555-27.867c30.273,0,59.896,4.793,85.664,13.862c3.907,1.375,5.961,5.657,4.585,9.564
	c-1.375,3.907-5.658,5.96-9.563,4.585c-24.188-8.512-52.088-13.011-80.686-13.011c-41.325,0-80.063,9.188-109.078,25.871
	c-27.709,15.932-42.969,36.66-42.969,58.366c0,21.704,15.258,42.432,42.964,58.363l119.429-119.429
	c2.931-2.929,7.679-2.929,10.607,0c2.929,2.929,2.929,7.678,0,10.606L109.337,257.565c10.995,4.952,23.018,8.98,35.778,12.012
	l124.85-124.849c2.931-2.93,7.679-2.929,10.607,0s2.929,7.678,0,10.606L162.834,273.071c13.341,2.115,27.282,3.208,41.531,3.208
	c41.325,0,80.064-9.188,109.079-25.871c27.709-15.932,42.969-36.66,42.969-58.366c0-19.255-12.386-38.196-34.874-53.333
	c-3.437-2.313-4.348-6.973-2.034-10.41c2.313-3.436,6.975-4.348,10.409-2.034C356.674,144.278,371.412,167.638,371.412,192.042z"/>
<g>
</g>
<g>
</g>
<g>
</g>
<g>
</g>
<g>
</g>
<g>
</g>
<g>
</g>
<g>
</g>
<g>
</g>
<g>
</g>
<g>
</g>
<g>
</g>
<g>
</g>
<g>
</g>
<g>
</g>
</svg>
